solid AssimpScene
 facet normal -0 0 1
  outer loop
  vertex 0.1815 0.149 0
  vertex 0.199 -0.149 0
  vertex 0.199 0.149 0
  endloop
 endfacet
 facet normal -0 0 1
  outer loop
  vertex 0.1815 0.149 0
  vertex 0.1815 -0.149 0
  vertex 0.199 -0.149 0
  endloop
 endfacet
 facet normal -0 0 1
  outer loop
  vertex -0.199 0.149 0
  vertex -0.1815 -0.149 0
  vertex -0.1815 0.149 0
  endloop
 endfacet
 facet normal -0 0 1
  outer loop
  vertex -0.199 0.149 0
  vertex -0.199 -0.149 0
  vertex -0.1815 -0.149 0
  endloop
 endfacet
 facet normal 0 0 1
  outer loop
  vertex 0.1815 0.149 0
  vertex -0.1815 0.149 0
  vertex 0.1815 0.1315 0
  endloop
 endfacet
 facet normal -0 0 1
  outer loop
  vertex -0.1815 0.149 0
  vertex -0.1815 0.1315 0
  vertex 0.1815 0.1315 0
  endloop
 endfacet
 facet normal -0 0 1
  outer loop
  vertex -0.1815 -0.1315 0
  vertex 0.1815 -0.149 0
  vertex 0.1815 -0.1315 0
  endloop
 endfacet
 facet normal -0 0 1
  outer loop
  vertex -0.1815 -0.1315 0
  vertex -0.1815 -0.149 0
  vertex 0.1815 -0.149 0
  endloop
 endfacet
endsolid AssimpScene
