solid AssimpScene
 facet normal -0 0 1
  outer loop
  vertex 0.184 0.1485 0
  vertex 0.1985 -0.1485 0
  vertex 0.1985 0.1485 0
  endloop
 endfacet
 facet normal -0 0 1
  outer loop
  vertex 0.184 0.1485 0
  vertex 0.184 -0.1485 0
  vertex 0.1985 -0.1485 0
  endloop
 endfacet
 facet normal -0 0 1
  outer loop
  vertex -0.1985 0.1485 0
  vertex -0.184 -0.1485 0
  vertex -0.184 0.1485 0
  endloop
 endfacet
 facet normal -0 0 1
  outer loop
  vertex -0.1985 0.1485 0
  vertex -0.1985 -0.1485 0
  vertex -0.184 -0.1485 0
  endloop
 endfacet
 facet normal 0 0 1
  outer loop
  vertex 0.184 0.1485 0
  vertex -0.184 0.1485 0
  vertex 0.184 0.134 0
  endloop
 endfacet
 facet normal -0 0 1
  outer loop
  vertex -0.184 0.1485 0
  vertex -0.184 0.134 0
  vertex 0.184 0.134 0
  endloop
 endfacet
 facet normal -0 0 1
  outer loop
  vertex -0.184 -0.134 0
  vertex 0.184 -0.1485 0
  vertex 0.184 -0.134 0
  endloop
 endfacet
 facet normal -0 0 1
  outer loop
  vertex -0.184 -0.134 0
  vertex -0.184 -0.1485 0
  vertex 0.184 -0.1485 0
  endloop
 endfacet
endsolid AssimpScene
