solid AssimpScene
 facet normal -0 0 1
  outer loop
  vertex 0.184 0.15 0
  vertex 0.201 -0.15 0
  vertex 0.201 0.15 0
  endloop
 endfacet
 facet normal -0 0 1
  outer loop
  vertex 0.184 0.15 0
  vertex 0.184 -0.15 0
  vertex 0.201 -0.15 0
  endloop
 endfacet
 facet normal -0 0 1
  outer loop
  vertex -0.201 0.15 0
  vertex -0.184 -0.15 0
  vertex -0.184 0.15 0
  endloop
 endfacet
 facet normal -0 0 1
  outer loop
  vertex -0.201 0.15 0
  vertex -0.201 -0.15 0
  vertex -0.184 -0.15 0
  endloop
 endfacet
 facet normal 0 0 1
  outer loop
  vertex 0.184 0.15 0
  vertex -0.184 0.15 0
  vertex 0.184 0.131 0
  endloop
 endfacet
 facet normal -0 0 1
  outer loop
  vertex -0.184 0.15 0
  vertex -0.184 0.131 0
  vertex 0.184 0.131 0
  endloop
 endfacet
 facet normal -0 0 1
  outer loop
  vertex -0.184 -0.131 0
  vertex 0.184 -0.15 0
  vertex 0.184 -0.131 0
  endloop
 endfacet
 facet normal -0 0 1
  outer loop
  vertex -0.184 -0.131 0
  vertex -0.184 -0.15 0
  vertex 0.184 -0.15 0
  endloop
 endfacet
endsolid AssimpScene
