solid AssimpScene
 facet normal -0 0 1
  outer loop
  vertex 0.1875 0.1515 0
  vertex 0.2025 -0.1515 0
  vertex 0.2025 0.1515 0
  endloop
 endfacet
 facet normal -0 0 1
  outer loop
  vertex 0.1875 0.1515 0
  vertex 0.1875 -0.1515 0
  vertex 0.2025 -0.1515 0
  endloop
 endfacet
 facet normal -0 0 1
  outer loop
  vertex -0.2025 0.1515 0
  vertex -0.1875 -0.1515 0
  vertex -0.1875 0.1515 0
  endloop
 endfacet
 facet normal -0 0 1
  outer loop
  vertex -0.2025 0.1515 0
  vertex -0.2025 -0.1515 0
  vertex -0.1875 -0.1515 0
  endloop
 endfacet
 facet normal 0 0 1
  outer loop
  vertex 0.1875 0.1515 0
  vertex -0.1875 0.1515 0
  vertex 0.1875 0.135 0
  endloop
 endfacet
 facet normal -0 0 1
  outer loop
  vertex -0.1875 0.1515 0
  vertex -0.1875 0.135 0
  vertex 0.1875 0.135 0
  endloop
 endfacet
 facet normal -0 0 1
  outer loop
  vertex -0.1875 -0.135 0
  vertex 0.1875 -0.1515 0
  vertex 0.1875 -0.135 0
  endloop
 endfacet
 facet normal -0 0 1
  outer loop
  vertex -0.1875 -0.135 0
  vertex -0.1875 -0.1515 0
  vertex 0.1875 -0.1515 0
  endloop
 endfacet
endsolid AssimpScene
