solid AssimpScene
 facet normal -0 0 1
  outer loop
  vertex 0.28375 0.2 0
  vertex 0.3 -0.2 0
  vertex 0.3 0.2 0
  endloop
 endfacet
 facet normal -0 0 1
  outer loop
  vertex 0.28375 0.2 0
  vertex 0.28375 -0.2 0
  vertex 0.3 -0.2 0
  endloop
 endfacet
 facet normal -0 0 1
  outer loop
  vertex -0.3 0.2 0
  vertex -0.28375 -0.2 0
  vertex -0.28375 0.2 0
  endloop
 endfacet
 facet normal -0 0 1
  outer loop
  vertex -0.3 0.2 0
  vertex -0.3 -0.2 0
  vertex -0.28375 -0.2 0
  endloop
 endfacet
 facet normal 0 0 1
  outer loop
  vertex 0.28375 0.2 0
  vertex -0.28375 0.2 0
  vertex 0.28375 0.1825 0
  endloop
 endfacet
 facet normal -0 0 1
  outer loop
  vertex -0.28375 0.2 0
  vertex -0.28375 0.1825 0
  vertex 0.28375 0.1825 0
  endloop
 endfacet
 facet normal -0 0 1
  outer loop
  vertex -0.28375 -0.1825 0
  vertex 0.28375 -0.2 0
  vertex 0.28375 -0.1825 0
  endloop
 endfacet
 facet normal -0 0 1
  outer loop
  vertex -0.28375 -0.1825 0
  vertex -0.28375 -0.2 0
  vertex 0.28375 -0.2 0
  endloop
 endfacet
endsolid AssimpScene
