solid AssimpScene
 facet normal -0 0 1
  outer loop
  vertex 0.284 0.2 0
  vertex 0.3 -0.2 0
  vertex 0.3 0.2 0
  endloop
 endfacet
 facet normal -0 0 1
  outer loop
  vertex 0.284 0.2 0
  vertex 0.284 -0.2 0
  vertex 0.3 -0.2 0
  endloop
 endfacet
 facet normal -0 0 1
  outer loop
  vertex -0.3 0.2 0
  vertex -0.284 -0.2 0
  vertex -0.284 0.2 0
  endloop
 endfacet
 facet normal -0 0 1
  outer loop
  vertex -0.3 0.2 0
  vertex -0.3 -0.2 0
  vertex -0.284 -0.2 0
  endloop
 endfacet
 facet normal 0 0 1
  outer loop
  vertex 0.284 0.2 0
  vertex -0.284 0.2 0
  vertex 0.284 0.184 0
  endloop
 endfacet
 facet normal -0 0 1
  outer loop
  vertex -0.284 0.2 0
  vertex -0.284 0.184 0
  vertex 0.284 0.184 0
  endloop
 endfacet
 facet normal -0 0 1
  outer loop
  vertex -0.284 -0.184 0
  vertex 0.284 -0.2 0
  vertex 0.284 -0.184 0
  endloop
 endfacet
 facet normal -0 0 1
  outer loop
  vertex -0.284 -0.184 0
  vertex -0.284 -0.2 0
  vertex 0.284 -0.2 0
  endloop
 endfacet
endsolid AssimpScene
