solid AssimpScene
 facet normal -0 0 1
  outer loop
  vertex 0.59 0.5 0
  vertex 0.6 -0.5 0
  vertex 0.6 0.5 0
  endloop
 endfacet
 facet normal -0 0 1
  outer loop
  vertex 0.59 0.5 0
  vertex 0.59 -0.5 0
  vertex 0.6 -0.5 0
  endloop
 endfacet
 facet normal -0 0 1
  outer loop
  vertex -0.6 0.5 0
  vertex -0.59 -0.5 0
  vertex -0.59 0.5 0
  endloop
 endfacet
 facet normal -0 0 1
  outer loop
  vertex -0.6 0.5 0
  vertex -0.6 -0.5 0
  vertex -0.59 -0.5 0
  endloop
 endfacet
 facet normal 0 0 1
  outer loop
  vertex 0.59 0.5 0
  vertex -0.59 0.5 0
  vertex 0.59 0.49 0
  endloop
 endfacet
 facet normal -0 0 1
  outer loop
  vertex -0.59 0.5 0
  vertex -0.59 0.49 0
  vertex 0.59 0.49 0
  endloop
 endfacet
 facet normal -0 0 1
  outer loop
  vertex -0.59 -0.49 0
  vertex 0.59 -0.5 0
  vertex 0.59 -0.49 0
  endloop
 endfacet
 facet normal -0 0 1
  outer loop
  vertex -0.59 -0.49 0
  vertex -0.59 -0.5 0
  vertex 0.59 -0.5 0
  endloop
 endfacet
endsolid AssimpScene
