solid AssimpScene
 facet normal -0 0 1
  outer loop
  vertex 0.61 0.421 0
  vertex 0.62 -0.421 0
  vertex 0.62 0.421 0
  endloop
 endfacet
 facet normal -0 0 1
  outer loop
  vertex 0.61 0.421 0
  vertex 0.61 -0.421 0
  vertex 0.62 -0.421 0
  endloop
 endfacet
 facet normal -0 0 1
  outer loop
  vertex -0.62 0.421 0
  vertex -0.61 -0.421 0
  vertex -0.61 0.421 0
  endloop
 endfacet
 facet normal -0 0 1
  outer loop
  vertex -0.62 0.421 0
  vertex -0.62 -0.421 0
  vertex -0.61 -0.421 0
  endloop
 endfacet
 facet normal 0 0 1
  outer loop
  vertex 0.61 0.421 0
  vertex -0.61 0.421 0
  vertex 0.61 0.411 0
  endloop
 endfacet
 facet normal -0 0 1
  outer loop
  vertex -0.61 0.421 0
  vertex -0.61 0.411 0
  vertex 0.61 0.411 0
  endloop
 endfacet
 facet normal -0 0 1
  outer loop
  vertex -0.61 -0.411 0
  vertex 0.61 -0.421 0
  vertex 0.61 -0.411 0
  endloop
 endfacet
 facet normal -0 0 1
  outer loop
  vertex -0.61 -0.411 0
  vertex -0.61 -0.421 0
  vertex 0.61 -0.421 0
  endloop
 endfacet
endsolid AssimpScene
