solid AssimpScene
 facet normal -0 0 1
  outer loop
  vertex 0.0075 0.015 0
  vertex 0.435 -0.015 0
  vertex 0.435 0.015 0
  endloop
 endfacet
 facet normal -0 0 1
  outer loop
  vertex 0.0075 0.015 0
  vertex 0.0075 -0.015 0
  vertex 0.435 -0.015 0
  endloop
 endfacet
 facet normal -0 0 1
  outer loop
  vertex -0.435 0.015 0
  vertex -0.0075 -0.015 0
  vertex -0.0075 0.015 0
  endloop
 endfacet
 facet normal -0 0 1
  outer loop
  vertex -0.435 0.015 0
  vertex -0.435 -0.015 0
  vertex -0.0075 -0.015 0
  endloop
 endfacet
 facet normal 0 0 1
  outer loop
  vertex 0.0075 0.015 0
  vertex -0.0075 0.015 0
  vertex 0.0075 0.0075 0
  endloop
 endfacet
 facet normal -0 0 1
  outer loop
  vertex -0.0075 0.015 0
  vertex -0.0075 0.0075 0
  vertex 0.0075 0.0075 0
  endloop
 endfacet
 facet normal -0 0 1
  outer loop
  vertex -0.0075 -0.0075 0
  vertex 0.0075 -0.015 0
  vertex 0.0075 -0.0075 0
  endloop
 endfacet
 facet normal -0 0 1
  outer loop
  vertex -0.0075 -0.0075 0
  vertex -0.0075 -0.015 0
  vertex 0.0075 -0.015 0
  endloop
 endfacet
endsolid AssimpScene
